<svg xmlns="http://www.w3.org/2000/svg" width="480" height="480" viewBox="0 0 480 480">
  <g fill="none" fill-rule="evenodd" transform="translate(96 113)">
    <path fill="#E02926" d="M246.4584,145.704391 C242.9328,151.806965 242.6424,158.878277 245.0352,164.964065 L244.9728,164.928097 C247.344,171.001897 247.044,178.051628 243.528,184.137416 C240.012,190.220807 234.0504,194.004643 227.5992,194.990166 L227.6688,195.03093 C221.1936,196.002066 215.2056,199.7883 211.6776,205.893271 C205.5312,216.530213 209.1792,230.133317 219.8256,236.274257 C230.472,242.415196 244.0872,238.770437 250.2336,228.133495 C253.7616,222.028524 254.0496,214.952416 251.6544,208.866627 L251.724,208.904993 C249.3528,202.831194 249.6504,195.781463 253.1664,189.695674 C256.6824,183.612283 262.644,179.828448 269.095199,178.842924 L269.032799,178.806956 C275.503199,177.833422 281.488799,174.047189 285.014399,167.944615 C291.160799,157.307673 287.512799,143.704569 276.866399,137.56363 C266.219999,131.42269 252.6048,135.067449 246.4584,145.704391 M37.7664004,25.3242325 C34.2408005,31.4268062 33.9528005,38.4981184 36.3432004,44.5839069 L36.2832004,44.5479389 C38.6520004,50.6217381 38.3520004,57.6714695 34.8360005,63.7548602 C31.3200005,69.8406487 25.3584005,73.6244842 18.9072005,74.6100078 L18.9768005,74.6507716 C12.5040005,75.6195102 6.51360057,79.4081413 2.98560058,85.510715 C-3.16079939,96.1500545 0.487200593,109.750761 11.1336005,115.8917 C21.7824005,122.035038 35.3952004,118.390279 41.5440004,107.753337 C45.0696004,101.648365 45.3576004,94.5722575 42.9624004,88.4864689 L43.0320004,88.5248348 C40.6608004,82.4510356 40.9584004,75.4013042 44.4768004,69.3155157 C47.9928004,63.2297271 53.9544004,59.4482896 60.4032003,58.460368 L60.3408003,58.4244 C66.8112003,57.4532635 72.7968003,53.6670302 76.3224003,47.5644566 C82.4712003,36.927515 78.8232003,23.3244108 68.1744003,17.1834713 C57.5280004,11.0425318 43.9152004,14.684893 37.7664004,25.3242325 M211.6776,85.5131128 C208.1496,91.6180843 207.828,98.6750093 210.2232,104.760798 C212.592,110.834597 212.2608,117.865146 208.7424,123.950934 C205.2264,130.034325 199.2984,133.837343 192.8496,134.825265 C186.3768,135.796401 180.4224,139.601817 176.8944,145.704391 C173.3664,151.809362 173.0448,158.86389 175.44,164.952076 C177.8112,171.025875 177.4776,178.056424 173.9616,184.142212 C170.4456,190.225603 164.5176,194.028621 158.0664,195.014145 C151.5936,195.985281 145.6392,199.790698 142.1136,205.895669 C135.9648,216.532611 139.6128,230.135715 150.2616,236.276654 C160.908,242.417594 174.5208,238.772835 180.6696,228.135893 C184.1952,222.03332 184.5168,214.976395 182.124,208.890606 C179.7528,202.816807 180.084,195.786258 183.6,189.70047 C187.116,183.617079 193.044,179.811663 199.4952,178.826139 C205.968,177.855003 211.9224,174.049587 215.4504,167.944615 C218.9784,161.842041 219.2976,154.787514 216.9048,148.701726 C214.5336,142.627927 214.8672,135.59498 218.3832,129.51159 C221.8992,123.425801 227.8272,119.622783 234.276,118.637259 C240.7512,117.666122 246.7056,113.858308 250.2336,107.755735 C256.38,97.1163952 252.732,83.5156889 242.0856,77.3723516 C231.4368,71.2314121 217.824,74.8761712 211.6776,85.5131128 M107.3304,25.3242325 C103.8024,31.4268062 103.4808,38.4837312 105.876,44.5695197 C108.2472,50.6433189 107.9136,57.6738674 104.3976,63.7596559 C100.8816,69.8454445 94.9536002,73.6484628 88.5024002,74.6339865 C82.0296003,75.605123 76.0752003,79.4105392 72.5496003,85.5131128 C69.0216003,91.6180843 68.7000003,98.6750093 71.0952003,104.760798 C73.4664003,110.834597 73.1328003,117.865146 69.6168003,123.950934 C66.1008003,130.034325 60.1704003,133.837343 53.7216004,134.825265 C47.2488004,135.796401 41.2944004,139.601817 37.7664004,145.704391 C31.6200005,156.341333 35.2680004,169.944437 45.9144004,176.085376 C56.5632004,182.226316 70.1760003,178.581557 76.3224003,167.944615 C79.8504003,161.842041 80.1720003,154.787514 77.7768003,148.701726 C75.4080003,142.627927 75.7392003,135.59498 79.2552003,129.51159 C82.7712003,123.425801 88.6992002,119.622783 95.1504002,118.637259 C101.6232,117.666122 107.5776,113.858308 111.1056,107.755735 C114.6312,101.650763 114.9528,94.5962362 112.56,88.5104476 C110.1888,82.4366484 110.52,75.4060999 114.036,69.3203114 C117.5544,63.2345229 123.48,59.4315045 129.9312,58.4459808 C136.404,57.4748443 142.3608,53.6694281 145.8864,47.5644566 C152.0352,36.927515 148.3872,23.3244108 137.7384,17.1834713 C127.092,11.0425318 113.4792,14.684893 107.3304,25.3242325 M207.3024,17.1834713 C217.9488,23.3244108 221.5968,36.927515 215.4504,47.5644566 C211.9248,53.6694281 205.9344,57.4556614 199.4616,58.4267979 L199.5288,58.4651638 C193.08,59.4506874 187.1184,63.2345229 183.6024,69.3203114 C180.084,75.4037021 179.7864,82.4558314 182.1576,88.5296306 L182.0904,88.4912647 C184.4832,94.5770532 184.1952,101.650763 180.6696,107.755735 C177.144,113.855911 171.1584,117.642144 164.688,118.615678 L164.7504,118.651646 C158.2992,119.63717 152.3376,123.421005 148.8216,129.506794 C145.3056,135.590184 145.0056,142.642314 147.3768,148.716113 L147.3096,148.675349 C149.7048,154.763536 149.4168,161.837246 145.8888,167.942217 C142.3608,174.047189 136.3704,177.83582 129.8952,178.804558 L129.9648,178.845322 C123.516,179.830846 117.5544,183.614681 114.0384,189.70047 C110.5224,195.783861 110.2224,202.83599 112.5936,208.909789 L112.5288,208.873821 C114.9216,214.957212 114.6336,222.030922 111.1056,228.133495 C104.9592,238.770437 91.3464002,242.415196 80.6976003,236.274257 C70.0512003,230.133317 66.4032003,216.530213 72.5496003,205.893271 C76.0776003,199.790698 82.0632003,196.004464 88.5360002,195.03093 L88.4712002,194.994962 C94.9200002,194.009438 100.8816,190.225603 104.3976,184.139814 C107.916,178.054026 108.2136,171.004294 105.8424,164.930495 L105.9144,164.971259 C103.5168,158.883073 103.8048,151.806965 107.3328,145.701993 C110.8608,139.597022 116.8512,135.810788 123.324,134.839652 L123.2544,134.798888 C129.7056,133.813364 135.6672,130.029529 139.1832,123.946138 C142.6992,117.86035 142.9968,110.810618 140.628,104.736819 L140.6904,104.772787 C138.2976,98.6869987 138.588,91.6156864 142.1136,85.5131128 C145.6392,79.4105392 151.6296,75.6243059 158.1024,74.6531694 L158.0352,74.6124057 C164.484,73.626882 170.4456,69.8430466 173.9616,63.7596559 C177.4776,57.6738674 177.7776,50.624136 175.4064,44.5503368 L175.4736,44.5887027 C173.0808,38.5029141 173.3664,31.4268062 176.8944,25.3242325 C183.0408,14.684893 196.656,11.0425318 207.3024,17.1834713"/>
    <polygon fill="#0090D6" points="297.575 .609 314.704 .609 314.704 26.255 339.047 18.186 344.4 34.557 320.01 42.487 335.044 63.217 321.22 73.373 306.651 53.617 291.757 73.837 277.747 63.866 293.293 42.765 267.6 34.649 272.906 18.093 297.436 26.209"/>
  </g>
</svg>
